<svg width="100" height="101" viewBox="0 0 100 101" fill="none" xmlns="http://www.w3.org/2000/svg">
<path d="M24.712 14.7982C10.0651 23.5659 0.0997704 29.6606 0.23575 29.7461C0.371729 29.8316 11.522 36.5037 25.0034 44.5657C38.5042 52.6277 49.6156 59.2356 49.7322 59.2356C49.8487 59.2356 60.9602 52.6277 74.4609 44.5657C87.9423 36.5037 99.0926 29.8316 99.2286 29.7461C99.4811 29.5964 50.2372 -2.28882e-05 49.7127 -2.28882e-05C49.5768 -2.28882e-05 38.3099 6.672 24.712 14.7982Z" fill="url(#paint0_linear_47_46)"/>
<path d="M4.7001 47.4312C2.23305 48.9282 0.193359 50.1899 0.193359 50.254C0.193359 50.3182 11.3436 57.033 24.961 65.2019L49.7286 80.0001L74.4962 65.2019C88.1136 57.033 99.2639 50.3182 99.2639 50.254C99.2639 50.1043 90.4835 44.8437 90.231 44.8437C90.1144 44.8437 81.0038 50.2326 69.9507 56.8405C58.9169 63.4484 49.8063 68.8587 49.7286 68.8587C49.6509 68.8587 40.6763 63.5339 29.798 57.033C18.9002 50.5106 9.82845 45.0789 9.61477 44.9506C9.28454 44.7581 8.52694 45.1431 4.7001 47.4312Z" fill="url(#paint1_linear_47_46)"/>
<path d="M7.18747 66.5921C6.17734 67.2122 4.13765 68.4525 2.68073 69.3293L0 70.9118L24.8065 85.7528C47.243 99.1823 49.6324 100.551 50.0986 100.359C50.5648 100.166 97.0503 72.4087 98.7209 71.3395L99.4202 70.8904L95.1465 68.3242C92.7766 66.9128 90.6981 65.6725 90.5233 65.587C90.2707 65.4373 85.0064 68.4953 69.971 77.4983L49.7295 89.602L29.5269 77.5196C18.4155 70.869 9.26601 65.4373 9.16888 65.4587C9.09118 65.4587 8.1976 65.9719 7.18747 66.5921Z" fill="url(#paint2_linear_47_46)"/>
<defs>
<linearGradient id="paint0_linear_47_46" x1="49.732" y1="59.2356" x2="50" y2="-11" gradientUnits="userSpaceOnUse">
<stop offset="0.130208" stop-color="#00A6DA"/>
<stop offset="0.708333" stop-color="#02FCB1"/>
</linearGradient>
<linearGradient id="paint1_linear_47_46" x1="49.7286" y1="80.0001" x2="49.823" y2="38.3148" gradientUnits="userSpaceOnUse">
<stop offset="0.130208" stop-color="#00A6DA"/>
<stop offset="0.708333" stop-color="#02FCB1"/>
</linearGradient>
<linearGradient id="paint2_linear_47_46" x1="49.7101" y1="100.374" x2="49.8028" y2="58.9744" gradientUnits="userSpaceOnUse">
<stop offset="0.130208" stop-color="#00A6DA"/>
<stop offset="0.708333" stop-color="#02FCB1"/>
</linearGradient>
</defs>
</svg>
