<svg width="100" height="101" viewBox="0 0 100 101" fill="none" xmlns="http://www.w3.org/2000/svg">
<path d="M45.6588 0.410358C45.2093 0.644852 44.7599 1.0943 44.5254 1.56329C44.1541 2.28631 44.1346 2.69668 44.1346 8.59811V14.8513H40.0309C35.5169 14.8513 35.2433 14.9099 34.3053 16.0238C33.68 16.7663 33.4651 17.7434 33.7582 18.6032C33.9145 19.0526 36.1618 21.4367 41.3597 26.6151C49.3325 34.5683 49.2739 34.5293 50.8176 34.0212C51.2671 33.8649 53.6511 31.6176 58.8295 26.4197C65.2 20.0492 66.1966 18.9549 66.3138 18.3296C66.5483 17.0594 65.8253 15.7502 64.516 15.0662C64.2424 14.9295 62.6401 14.8513 59.9825 14.8513H55.8593V8.59811C55.8593 2.69668 55.8397 2.28631 55.4684 1.56329C54.765 0.175865 54.1201 -7.62939e-06 49.9578 -7.62939e-06C46.7922 0.0195351 46.3036 0.0586166 45.6588 0.410358Z" fill="url(#paint0_linear_44_31)"/>
<path d="M24.8452 31.8325C19.4518 33.6108 14.9964 35.135 14.9378 35.1936C14.8792 35.2522 22.7543 37.9098 32.4272 41.1146L50.0338 46.9379L67.6013 41.1146C77.2742 37.9098 85.1102 35.2327 85.0321 35.1545C84.9344 35.0764 80.4399 33.5522 75.0074 31.7739L65.1391 28.5301L60.1561 33.5131C55.7594 37.8903 54.9973 38.5547 53.8639 39.0823C51.2649 40.3134 48.7245 40.3134 46.1256 39.0823C44.9726 38.5547 44.2301 37.8903 39.8333 33.4935C37.078 30.7773 34.7917 28.5301 34.7526 28.5496C34.694 28.5692 30.2386 30.0347 24.8452 31.8325Z" fill="url(#paint1_linear_44_31)"/>
<path d="M5.44211 43.7722C2.92129 45.9217 0.654516 47.954 0.420022 48.2862C-0.361625 49.3805 -0.0098842 51.1588 1.1235 51.9599C1.84653 52.468 35.1056 63.5088 35.8873 63.5088C37.4115 63.5088 37.6851 63.2157 41.6324 57.2947C43.6647 54.2463 45.267 51.6668 45.1693 51.5887C45.0521 51.4714 12.4379 40.587 10.4251 40.0007C10.1124 39.903 9.01814 40.7433 5.44211 43.7722Z" fill="url(#paint2_linear_44_31)"/>
<path d="M72.3319 45.6872C62.7372 48.892 54.8426 51.5496 54.784 51.6277C54.7058 51.6864 56.3277 54.2463 58.36 57.2947C62.3073 63.2157 62.5809 63.5088 64.0856 63.5088C64.8868 63.5088 98.1654 52.468 98.8689 51.9599C99.885 51.2369 100.315 49.5955 99.7482 48.5012C99.5137 48.0322 90.2903 40.0007 89.919 39.9226C89.8213 39.9226 81.9267 42.502 72.3319 45.6872Z" fill="url(#paint3_linear_44_31)"/>
<path d="M44.8372 63.0398C43.6647 64.7985 42.3359 66.5963 41.8864 67.0067C39.9909 68.7458 37.9391 69.4884 35.3597 69.3125C33.8355 69.2148 32.6044 68.8435 22.8338 65.5802C16.8737 63.5869 11.9298 61.9455 11.8516 61.9455C11.7539 61.9455 11.6953 67.3584 11.6953 73.9633C11.6953 85.6294 11.7149 86.0202 12.0861 86.7628C12.3011 87.1927 12.7505 87.6812 13.1023 87.8571C13.454 88.033 21.2119 90.8469 30.3571 94.1103L46.9672 100.012L47.0258 89.9675C47.0453 84.4374 47.0453 75.4094 47.0258 69.8792L46.9672 59.835L44.8372 63.0398Z" fill="url(#paint4_linear_44_31)"/>
<path d="M52.9258 79.8647V100.031L54.5477 99.4841C59.4721 97.784 85.6182 88.4238 86.478 88.033C87.2596 87.6812 87.5723 87.3881 87.885 86.7823C88.2953 86.0202 88.2953 85.7271 88.2953 73.9633C88.2953 67.3584 88.2367 61.9455 88.139 61.9455C88.0608 61.9455 83.1169 63.5869 77.1569 65.5801C67.3863 68.8435 66.1552 69.2148 64.631 69.3125C62.0906 69.4688 60.0583 68.7654 58.1433 67.0457C57.7134 66.6549 56.365 64.8571 55.1339 63.0202L52.9258 59.6982V79.8647Z" fill="url(#paint5_linear_44_31)"/>
<defs>
<linearGradient id="paint0_linear_44_31" x1="50.3536" y1="27.8218" x2="50.3536" y2="-13.315" gradientUnits="userSpaceOnUse">
<stop stop-color="#3467FC"/>
<stop offset="1" stop-color="#BC34FC"/>
</linearGradient>
<linearGradient id="paint1_linear_44_31" x1="50.7569" y1="43.5006" x2="50.7569" y2="21.3655" gradientUnits="userSpaceOnUse">
<stop stop-color="#3467FC"/>
<stop offset="1" stop-color="#BC34FC"/>
</linearGradient>
<linearGradient id="paint2_linear_44_31" x1="23.0842" y1="59.1178" x2="23.0842" y2="30.8407" gradientUnits="userSpaceOnUse">
<stop stop-color="#3467FC"/>
<stop offset="1" stop-color="#BC34FC"/>
</linearGradient>
<linearGradient id="paint3_linear_44_31" x1="77.8887" y1="59.1046" x2="77.8887" y2="30.7425" gradientUnits="userSpaceOnUse">
<stop stop-color="#3467FC"/>
<stop offset="1" stop-color="#BC34FC"/>
</linearGradient>
<linearGradient id="paint4_linear_44_31" x1="29.757" y1="92.5097" x2="29.757" y2="44.1976" gradientUnits="userSpaceOnUse">
<stop stop-color="#3467FC"/>
<stop offset="1" stop-color="#BC34FC"/>
</linearGradient>
<linearGradient id="paint5_linear_44_31" x1="71" y1="92.5" x2="71" y2="44" gradientUnits="userSpaceOnUse">
<stop stop-color="#3467FC"/>
<stop offset="1" stop-color="#BC34FC"/>
</linearGradient>
</defs>
</svg>
