<svg width="99" height="101" viewBox="0 0 99 101" fill="none" xmlns="http://www.w3.org/2000/svg">
<path d="M39.6314 0.111824C32.5332 0.979378 26.3223 3.52288 20.4072 7.97895C18.0411 9.75349 14.1963 13.5589 12.4021 15.8855C8.08401 21.4654 4.77154 28.1101 2.95757 34.8928C1.04501 42.0698 0 49.3257 0 55.4972C0.0197171 63.6206 1.77454 68.9245 5.67852 72.4933C7.86712 74.5045 10.6275 75.7663 14.078 76.3184C16.799 76.7719 17.2722 76.7325 18.2186 75.9635C20.2889 74.2876 23.4436 72.4933 25.5731 71.8032C26.5392 71.4877 27.8208 70.2258 48.8393 48.9511C61.0639 36.5687 72.5984 24.8765 74.4715 22.9639L77.8825 19.5135L76.6798 17.7389C70.1337 8.29443 60.709 2.22156 49.6871 0.407585C47.4393 0.032959 41.682 -0.124779 39.6314 0.111824ZM48.3463 9.20141C52.1517 10.0295 55.1093 12.9082 56.0952 16.7728C57.4359 22.0175 54.084 27.4003 48.6027 28.8002C46.4338 29.3523 43.8508 29.0565 41.7411 27.9918C40.3609 27.282 38.054 24.9554 37.4033 23.5752C35.4119 19.4346 36.102 15.2151 39.2765 12.0604C41.8397 9.49717 45.0339 8.51131 48.3463 9.20141ZM26.066 22.8259C27.6039 23.5555 28.8067 24.7188 29.5954 26.2567C30.2263 27.5186 30.2658 27.7158 30.2658 29.5692C30.2658 31.3043 30.2066 31.6986 29.7531 32.645C27.7222 36.9237 22.5564 38.3039 18.6327 35.6026C17.4299 34.7745 16.4638 33.414 15.9709 31.8761C14.6498 27.6763 17.0553 23.4174 21.3931 22.3133C21.6099 22.2541 22.5169 22.2541 23.4042 22.2738C24.5872 22.333 25.2773 22.471 26.066 22.8259ZM21.7282 47.8666C25.5534 49.6215 27.2688 54.3141 25.3956 57.9421C24.9027 58.9082 23.5817 60.3673 22.6549 60.9588C20.6241 62.2207 17.7257 62.3587 15.4976 61.2546C9.46421 58.297 10.174 49.6215 16.6215 47.5117C17.9426 47.078 20.3678 47.2554 21.7282 47.8666Z" fill="url(#paint0_linear_47_56)"/>
<path d="M93.1053 12.0802C92.632 12.1788 47.4602 55.6747 47.5588 55.931C47.5982 56.0099 50.4375 58.6323 53.9077 61.7279C59.1721 66.4797 60.2171 67.3472 60.434 67.1304C60.5918 66.9726 69.3264 55.6353 79.8554 41.9122C97.4825 18.9615 99.0007 16.9109 98.9021 16.3391C98.6852 14.8603 96.5952 12.7703 94.7812 12.2379C94.2291 12.0802 93.7362 11.9619 93.6771 11.9619C93.6179 11.9816 93.3616 12.0408 93.1053 12.0802Z" fill="url(#paint1_linear_47_56)"/>
<path d="M38.7261 65.4937C35.2559 69.3582 32.4166 72.5721 32.3772 72.6707C32.318 72.8087 44.7398 84.1263 45.0158 84.1855C45.1736 84.2249 57.7728 70.1469 57.7728 69.93C57.7728 69.792 46.1791 59.3222 45.351 58.7307C45.0553 58.5138 44.2271 59.3616 38.7261 65.4937ZM45.6073 63.8177C46.5735 64.3106 47.1256 65.0402 47.1256 65.7697C47.1256 66.4204 46.8101 66.8541 43.9117 70.1272C40.9541 73.4594 40.6386 73.7551 39.988 73.8143C39.3965 73.8734 39.1204 73.7551 38.4697 73.1439C37.5233 72.2961 37.4247 71.6651 38.1148 70.7778C39.1993 69.3188 44.0891 63.936 44.444 63.798C45.0158 63.5614 45.1144 63.5614 45.6073 63.8177Z" fill="url(#paint2_linear_47_56)"/>
<path d="M28.691 76.0423C26.8376 76.555 23.6434 78.1324 22.1449 79.2562C19.3057 81.4054 17.0185 84.5798 16.2495 87.4585C15.8355 89.0359 15.8355 91.8357 16.2692 93.4723C16.9396 96.0749 19.3845 100.196 20.5281 100.669C21.2577 100.984 22.2238 100.748 22.5787 100.196C22.7562 99.9395 23.0125 99.2297 23.1702 98.6184C23.7815 96.2918 24.9251 94.7539 26.3841 94.2807C26.8968 94.1229 28.691 93.8863 30.367 93.7877C33.8963 93.5511 35.2174 93.2554 37.0905 92.2695C38.6482 91.4414 40.4818 89.588 41.6452 87.6952L42.3747 86.5121L36.4793 81.1688C33.226 78.2112 30.4458 75.786 30.3275 75.7269C30.1895 75.6874 29.46 75.8255 28.691 76.0423ZM23.8603 87.7937C25.3785 88.7007 26.3053 88.8585 29.9332 88.8387C31.8063 88.8387 33.9358 88.9373 34.6653 89.0556C35.8483 89.2725 35.9272 89.312 35.5723 89.5683C34.8428 90.1006 33.1668 90.4358 29.7557 90.7119C25.3785 91.0668 24.5307 91.3428 22.6773 93.0976C21.1985 94.4976 20.607 94.675 19.838 93.906C19.5029 93.5708 19.3057 93.0188 19.1282 91.9935C18.7733 89.864 19.1479 87.8332 20.2521 85.9206L20.745 85.0531L21.9478 86.2164C22.6182 86.867 23.4857 87.5571 23.8603 87.7937Z" fill="url(#paint3_linear_47_56)"/>
<defs>
<linearGradient id="paint0_linear_47_56" x1="38.9413" y1="76.6115" x2="38.9413" y2="0" gradientUnits="userSpaceOnUse">
<stop stop-color="#6947CA"/>
<stop offset="1" stop-color="#CA47A0"/>
</linearGradient>
<linearGradient id="paint1_linear_47_56" x1="73.2324" y1="67.1605" x2="73.2324" y2="11.9619" gradientUnits="userSpaceOnUse">
<stop stop-color="#6947CA"/>
<stop offset="1" stop-color="#CA47A0"/>
</linearGradient>
<linearGradient id="paint2_linear_47_56" x1="45.0749" y1="84.1855" x2="45.0749" y2="58.701" gradientUnits="userSpaceOnUse">
<stop stop-color="#6947CA"/>
<stop offset="1" stop-color="#CA47A0"/>
</linearGradient>
<linearGradient id="paint3_linear_47_56" x1="29.158" y1="100.81" x2="29.158" y2="75.7202" gradientUnits="userSpaceOnUse">
<stop stop-color="#6947CA"/>
<stop offset="1" stop-color="#CA47A0"/>
</linearGradient>
</defs>
</svg>
