<svg width="88" height="100" viewBox="0 0 88 100" fill="none" xmlns="http://www.w3.org/2000/svg">
<path d="M49.3484 0.185715C48.2749 0.5956 47.1624 1.66911 46.6159 2.84021C46.1474 3.85516 46.1084 4.14793 46.0498 7.30989C45.9718 11.1745 46.245 10.7451 43.6686 10.9598C41.6387 11.1355 37.5398 11.9357 35.0805 12.6579C21.3982 16.6592 9.98001 26.5549 4.08548 39.4761C2.11414 43.8091 0.377008 49.8207 0.0451973 53.6073C-0.0523942 54.7003 -0.0133576 54.9736 0.377008 55.6372C1.17726 56.984 2.75824 57.4719 4.16356 56.8083C4.57344 56.6131 5.35417 55.8129 6.15442 54.7979C12.4979 46.6588 22.0033 41.1546 32.7383 39.437C35.2367 39.0271 41.7363 39.0076 44.2541 39.398L45.9132 39.6517L46.0108 43.3602C46.1279 47.4981 46.3036 48.2202 47.5918 49.4889C48.9776 50.8747 50.7342 51.2065 52.7836 50.4649C53.8376 50.0745 54.5012 49.4694 63.343 40.6471C73.0631 30.9661 73.7658 30.1658 74.3904 28.0578C74.7808 26.7501 74.8003 24.1542 74.4294 22.944C73.7073 20.5628 73.5316 20.3676 63.6163 10.4523C53.3497 0.205235 53.2911 0.166199 51.0855 0.0100517C50.5 -0.0289841 49.7193 0.0490875 49.3484 0.185715Z" fill="url(#paint0_linear_48_72)"/>
<path d="M83.4125 42.3505C83.1002 42.5457 82.2023 43.4826 81.4411 44.4389C79.7821 46.5274 76.1712 50.0602 74.1608 51.5826C68.5785 55.7986 62.1375 58.5312 55.0328 59.6632C52.5345 60.0731 46.0349 60.0926 43.517 59.7023L41.858 59.4485L41.7409 55.9352C41.6043 51.6802 41.3505 50.7824 39.9647 49.4552C38.5204 48.0498 36.5685 47.8351 34.5191 48.8306C33.4066 49.3771 32.1964 50.5287 24.0768 58.6483C17.3625 65.343 14.708 68.1342 14.2591 68.9149C12.6586 71.7646 12.5805 75.1803 14.0444 78.108C14.3372 78.6936 17.4796 81.9726 23.9402 88.4722C34.1092 98.6608 34.3825 98.8755 36.5295 99.1097C38.7155 99.3244 40.6283 97.8996 41.37 95.4988C41.6823 94.4839 41.7604 93.6836 41.7604 91.3414C41.7604 88.0038 41.5067 88.3551 44.1026 88.1404C46.0544 87.9843 49.9776 87.2035 52.4564 86.5009C70.628 81.2895 84.3689 65.8505 87.4332 47.2301C87.8236 44.8098 87.765 43.951 87.1209 43.0922C86.3207 42.0187 84.5445 41.6674 83.4125 42.3505Z" fill="url(#paint1_linear_48_72)"/>
<defs>
<linearGradient id="paint0_linear_48_72" x1="37.3479" y1="57.1025" x2="37.3479" y2="3.8147e-06" gradientUnits="userSpaceOnUse">
<stop stop-color="#AD00FF"/>
<stop offset="1" stop-color="#3D00FF"/>
</linearGradient>
<linearGradient id="paint1_linear_48_72" x1="50.3388" y1="99.131" x2="50.3388" y2="42" gradientUnits="userSpaceOnUse">
<stop stop-color="#AD00FF"/>
<stop offset="1" stop-color="#3D00FF"/>
</linearGradient>
</defs>
</svg>
