<svg width="17" height="30" viewBox="0 0 17 30" fill="none" xmlns="http://www.w3.org/2000/svg">
<path d="M4.60682 6.26909C2.59141 9.77543 0.947261 12.6512 0.959047 12.663C0.970833 12.6689 2.61498 11.8969 4.6245 10.9481L8.27228 9.21559L11.8434 10.901C13.8058 11.8321 15.4676 12.6159 15.5266 12.6512C15.6268 12.6984 15.6209 12.6748 15.4912 12.4509C15.1435 11.8498 8.39014 0.099103 8.33121 0.0048151C8.28406 -0.08358 7.61226 1.04198 4.60682 6.26909Z" fill="url(#paint0_linear_48_112)"/>
<path d="M5.17124 12.6397C3.47406 13.4471 1.95366 14.166 1.80044 14.2367L1.51758 14.3723L4.86481 15.9575C6.70343 16.8297 8.2415 17.5427 8.27097 17.5427C8.37704 17.5368 14.8711 14.4312 14.8888 14.3782C14.9006 14.3487 14.2229 14.001 13.3861 13.6062C12.5493 13.2114 11.0525 12.5042 10.0624 12.0328L8.25918 11.1783L5.17124 12.6397Z" fill="url(#paint1_linear_48_112)"/>
<path d="M4.10743 22.8282C6.36446 26.7824 8.23843 30.0059 8.26201 30C8.31504 29.9823 16.5122 15.6918 16.4828 15.6682C16.471 15.6623 14.6382 16.5286 12.3989 17.5893C10.1654 18.6559 8.30326 19.5281 8.26201 19.5281C8.22075 19.5281 6.48232 18.7149 4.40208 17.7248C2.31595 16.7289 0.477334 15.8568 0.306437 15.7802L0 15.6446L4.10743 22.8282Z" fill="url(#paint2_linear_48_112)"/>
<defs>
<linearGradient id="paint0_linear_48_112" x1="8.27738" y1="12.6714" x2="8.27738" y2="0.000119209" gradientUnits="userSpaceOnUse">
<stop stop-color="#07C6BA"/>
<stop offset="1" stop-color="#02FF93"/>
</linearGradient>
<linearGradient id="paint1_linear_48_112" x1="8.20327" y1="17.5427" x2="8.20327" y2="11.1783" gradientUnits="userSpaceOnUse">
<stop stop-color="#07C6BA"/>
<stop offset="1" stop-color="#02FF93"/>
</linearGradient>
<linearGradient id="paint2_linear_48_112" x1="8.24142" y1="30" x2="8.24142" y2="15.6446" gradientUnits="userSpaceOnUse">
<stop stop-color="#07C6BA"/>
<stop offset="1" stop-color="#05E887"/>
</linearGradient>
</defs>
</svg>
